# xmcd
#
# Track frame offsets: 
#        150
#        17246
#        39814
#        56547
#        78328
#        104426
#        155273
#        159010
#        173941
#        210726
#        235650
#        251607
#
# Disc length: 3542 seconds
#
# Revision: 0
# Processed by: cddbd v1.5.2PL0 Copyright (c) Steve Scherf et al.
# Submitted via: ExactAudioCopy v1.0b1
#
DISCID=870dd40c
DTITLE=George Harrison  - All Things Must Pass - Toshiba Red vinyl (AP
DTITLE=9016C) - D 2
DYEAR=1900
DGENRE=
TTITLE0=All Things Must Pass
TTITLE1=I Dig Love
TTITLE2=Art Of Dying
TTITLE3=Isn’t It A Pity (version 2)
TTITLE4=Hear Me Lord
TTITLE5=Out Of The Blue
TTITLE6=It’s Johnny’s Birthday
TTITLE7=Plug Me In
TTITLE8=I Remember Jeep
TTITLE9=Thanks For The Pepperoni
TTITLE10=If Not For You (from a Brazilian mono pressing)
TTITLE11=Apple Scruffs (from a Brazilian mono pressing)
EXTD=
EXTT0=
EXTT1=
EXTT2=
EXTT3=
EXTT4=
EXTT5=
EXTT6=
EXTT7=
EXTT8=
EXTT9=
EXTT10=
EXTT11=
PLAYORDER=
